# xmcd
#
# Track frame offsets: 
#        150
#        12050
#        29314
#        45859
#        56919
#        69603
#        88272
#        99600
#        107031
#        121544
#        139280
#        156146
#        169611
#        183691
#        202011
#        216971
#        224973
#        238313
#        244578
#        258576
#        266031
#        286076
#        300671
#        316751
#        323263
#        331136
#
# Disc length: 4595 seconds
#
# Revision: 0
# Processed by: cddbd v1.5.2PL0 Copyright (c) Steve Scherf et al.
# Submitted via: ExactAudioCopy v1.0b3
#
DISCID=7d11f11a
DTITLE=Enya - A Day Without Rain and The Celts
DYEAR=1900
DGENRE=
TTITLE0=A Day Without Rain
TTITLE1=Wild Wild
TTITLE2=Only Time
TTITLE3=Tempus Vernum
TTITLE4=Deora Ar Mo Chroi
TTITLE5=Floria's Secret
TTITLE6=Fallen Embers
TTITLE7=Silver Inches
TTITLE8=Piligrim
TTITLE9=One By One
TTITLE10=Lady days
TTITLE11=The Celts
TTITLE12=Aldebaran
TTITLE13=I Want Tomorrow
TTITLE14=March of The Celts
TTITLE15=Deireadh An Tuath
TTITLE16=The Sun In The Stream
TTITLE17=To Go Beyond
TTITLE18=Fairytale
TTITLE19=Epona
TTITLE20=Triad
TTITLE21=Portrait
TTITLE22=Boadicea
TTITLE23=Bard Dance
TTITLE24=Dan y Dur
TTITLE25=To Go Beyond (II)
EXTD=
EXTT0=
EXTT1=
EXTT2=
EXTT3=
EXTT4=
EXTT5=
EXTT6=
EXTT7=
EXTT8=
EXTT9=
EXTT10=
EXTT11=
EXTT12=
EXTT13=
EXTT14=
EXTT15=
EXTT16=
EXTT17=
EXTT18=
EXTT19=
EXTT20=
EXTT21=
EXTT22=
EXTT23=
EXTT24=
EXTT25=
PLAYORDER=
